<svg id="svg" xmlns="http://www.w3.org/2000/svg" xmlns:xlink="http://www.w3.org/1999/xlink"  viewBox="0, 0, 400,400" version="1.1"><g id="svgg">
<path id="path0" d="M192.183 95.402 C 188.656 96.533,182.497 102.895,181.132 106.817 C 179.467 111.602,179.521 152.259,181.198 156.273 C 184.128 163.283,190.736 168.000,197.630 168.000 L 201.724 168.000 201.462 201.000 C 201.119 244.225,205.050 239.535,169.315 239.349 C 144.531 239.219,140.302 238.855,136.071 236.486 L 134.142 235.405 136.020 233.903 C 157.696 216.559,159.257 197.216,139.600 189.524 C 133.778 187.246,110.139 186.702,102.800 188.676 C 86.159 193.155,84.830 194.430,84.809 205.934 L 84.800 210.667 95.400 221.416 C 104.939 231.089,105.852 232.257,104.525 233.082 C 87.900 243.422,82.300 251.127,81.762 264.400 C 81.276 276.392,84.584 283.079,94.000 289.141 C 97.873 291.634,98.804 292.025,104.800 293.681 C 114.164 296.268,131.592 296.272,139.914 293.689 C 141.407 293.225,142.847 292.979,143.114 293.142 C 145.612 294.662,149.192 290.566,149.023 286.381 C 148.611 276.210,147.962 275.361,141.981 277.175 C 136.683 278.782,117.884 278.833,112.682 277.254 C 95.474 272.032,94.506 257.322,110.758 248.025 C 118.224 243.753,118.834 243.681,122.214 246.669 C 132.334 255.618,134.451 256.037,169.314 256.005 C 200.125 255.976,202.677 255.737,206.192 252.558 C 207.853 251.055,208.088 251.031,209.421 252.238 C 213.267 255.719,215.444 255.964,242.979 256.021 C 274.806 256.087,278.594 255.025,282.996 244.800 C 284.746 240.735,285.572 199.441,283.916 198.821 C 282.835 198.417,268.199 200.335,267.571 200.962 C 267.400 201.134,267.218 208.803,267.168 218.006 C 267.039 241.446,268.973 239.912,239.841 239.684 C 212.311 239.468,214.411 242.090,214.404 207.933 L 214.400 185.065 218.200 181.524 C 220.290 179.576,224.631 175.737,227.846 172.991 L 233.691 168.000 247.970 168.000 C 273.821 168.000,275.969 165.144,275.988 130.750 C 276.003 103.948,274.660 99.938,264.206 95.570 C 260.748 94.126,196.632 93.976,192.183 95.402 M260.777 105.188 C 266.209 107.997,266.400 108.882,266.400 131.176 C 266.400 159.017,266.755 158.529,246.541 158.505 C 232.253 158.489,229.515 159.001,225.600 162.422 C 219.848 167.449,212.205 173.600,211.711 173.600 C 211.430 173.600,211.194 170.630,211.188 167.000 C 211.172 158.531,211.295 158.659,203.200 158.698 C 190.341 158.761,190.000 158.035,190.000 130.616 L 190.000 109.476 192.988 106.738 L 195.977 104.000 227.228 104.000 C 253.301 104.000,258.860 104.197,260.777 105.188 M234.025 126.375 L 222.070 138.350 216.320 132.775 C 208.668 125.355,204.000 125.340,204.000 132.736 C 204.000 135.512,204.648 136.387,211.957 143.479 C 222.796 153.997,221.115 154.410,238.560 136.946 C 253.911 121.581,255.286 119.297,251.337 115.724 C 248.161 112.850,246.520 113.860,234.025 126.375 M310.111 135.156 C 303.120 137.955,300.337 142.105,300.979 148.779 C 301.319 152.317,301.185 152.745,299.679 152.960 C 298.258 153.163,298.000 153.753,298.000 156.800 L 298.000 160.400 308.400 160.643 C 314.120 160.777,320.330 160.664,322.200 160.394 L 325.600 159.902 325.600 155.951 L 325.600 152.000 319.960 152.000 C 312.774 152.000,309.600 150.529,309.600 147.198 C 309.600 143.754,312.420 142.143,317.351 142.767 L 321.200 143.255 322.191 140.069 C 323.319 136.443,322.879 134.502,320.935 134.524 C 320.201 134.532,318.340 134.328,316.800 134.069 C 314.944 133.758,312.689 134.125,310.111 135.156 M120.088 156.316 C 115.313 158.963,114.741 164.501,118.821 168.581 C 122.360 172.120,126.282 171.918,129.800 168.015 C 135.687 161.485,127.833 152.024,120.088 156.316 M307.200 170.191 C 306.100 170.332,304.390 170.624,303.400 170.839 L 301.600 171.230 301.600 213.641 L 301.600 256.051 310.803 255.825 C 315.865 255.701,320.005 255.330,320.003 255.000 C 320.001 254.670,320.000 235.301,320.000 211.958 L 320.000 169.515 314.600 169.725 C 311.630 169.840,308.300 170.050,307.200 170.191 M131.898 205.147 C 137.727 208.161,137.284 212.527,130.473 219.192 C 124.344 225.189,121.642 226.319,118.638 224.139 C 113.337 220.292,102.052 208.028,102.970 207.110 C 105.790 204.290,127.404 202.824,131.898 205.147 M260.395 270.601 C 253.944 276.150,259.709 286.233,268.049 283.987 C 271.844 282.965,273.600 280.615,273.600 276.560 C 273.600 269.934,265.448 266.255,260.395 270.601 " stroke="none" fill="currentColor" fill-rule="evenodd">
</path>
</g>
</svg>
